<svg xmlns="http://www.w3.org/2000/svg" viewBox="0 0 512 512" fill="none">
  <rect width="512" height="512" rx="96" fill="#0a0a0a"/>
  <g transform="translate(96, 96)">
    <!-- Row 1 -->
    <rect x="0" y="0" width="96" height="96" rx="12" fill="#ef4444"/>
    <rect x="112" y="0" width="96" height="96" rx="12" fill="#a855f7"/>
    <rect x="224" y="0" width="96" height="96" rx="12" fill="#3b82f6"/>
    <!-- Row 2 -->
    <rect x="0" y="112" width="96" height="96" rx="12" fill="#eab308"/>
    <rect x="112" y="112" width="96" height="96" rx="12" fill="#10b981"/>
    <rect x="224" y="112" width="96" height="96" rx="12" fill="#ef4444"/>
    <!-- Row 3 -->
    <rect x="0" y="224" width="96" height="96" rx="12" fill="#3b82f6"/>
    <rect x="112" y="224" width="96" height="96" rx="12" fill="#eab308"/>
    <rect x="224" y="224" width="96" height="96" rx="12" fill="#a855f7"/>
    <!-- Numbers on cubes -->
    <text x="48" y="62" text-anchor="middle" font-family="system-ui,sans-serif" font-weight="800" font-size="48" fill="white">3</text>
    <text x="160" y="62" text-anchor="middle" font-family="system-ui,sans-serif" font-weight="800" font-size="48" fill="white">1</text>
    <text x="272" y="62" text-anchor="middle" font-family="system-ui,sans-serif" font-weight="800" font-size="48" fill="white">5</text>
    <text x="48" y="174" text-anchor="middle" font-family="system-ui,sans-serif" font-weight="800" font-size="48" fill="#0a0a0a">2</text>
    <text x="160" y="174" text-anchor="middle" font-family="system-ui,sans-serif" font-weight="800" font-size="48" fill="white">6</text>
    <text x="272" y="174" text-anchor="middle" font-family="system-ui,sans-serif" font-weight="800" font-size="48" fill="white">4</text>
    <text x="48" y="286" text-anchor="middle" font-family="system-ui,sans-serif" font-weight="800" font-size="48" fill="white">1</text>
    <text x="160" y="286" text-anchor="middle" font-family="system-ui,sans-serif" font-weight="800" font-size="48" fill="#0a0a0a">3</text>
    <text x="272" y="286" text-anchor="middle" font-family="system-ui,sans-serif" font-weight="800" font-size="48" fill="white">2</text>
  </g>
</svg>
